<svg xmlns="http://www.w3.org/2000/svg" width="21.459" height="21.459" viewBox="0 0 21.459 21.459">
  <g id="question-circle" opacity="0.78">
    <g id="Group_7492" data-name="Group 7492">
      <g id="Group_7491" data-name="Group 7491">
        <g id="Group_7490" data-name="Group 7490">
          <path id="Path_18706" data-name="Path 18706" d="M10.729,20.118a9.388,9.388,0,1,1,9.388-9.388,9.388,9.388,0,0,1-9.388,9.388Zm0,1.341A10.729,10.729,0,1,0,0,10.729,10.729,10.729,0,0,0,10.729,21.459Z" fill="#060606"/>
          <path id="Path_18707" data-name="Path 18707" d="M141.88,97.566a.318.318,0,0,0,.323.331h1.106a.373.373,0,0,0,.357-.335,1.675,1.675,0,0,1,1.8-1.521,1.558,1.558,0,0,1,1.762,1.566c0,.852-.5,1.243-1.294,1.839a3.054,3.054,0,0,0-1.566,2.665l0,.291a.335.335,0,0,0,.335.33h1.088a.335.335,0,0,0,.335-.335v-.141c0-.963.366-1.243,1.355-1.993a3.273,3.273,0,0,0,1.668-2.757c0-2.027-1.711-3.006-3.585-3.006-1.7,0-3.561.791-3.688,3.066Zm2.088,7.729a1.371,1.371,0,1,0,1.353-1.261A1.263,1.263,0,0,0,143.968,105.3Z" transform="translate(-134.832 -89.806)" fill="#060606"/>
        </g>
      </g>
    </g>
  </g>
</svg>
