<svg xmlns="http://www.w3.org/2000/svg" width="22" height="22" viewBox="0 0 22 22">
  <g id="Group_7902" data-name="Group 7902" transform="translate(-136 -922.304)">
    <path id="add_2_" data-name="add (2)" d="M11,0A11,11,0,1,0,22,11,11,11,0,0,0,11,0Zm0,20.167A9.167,9.167,0,1,1,20.167,11,9.167,9.167,0,0,1,11,20.167ZM15.583,11a.917.917,0,0,1-.917.917h-2.75v2.75a.917.917,0,1,1-1.833,0v-2.75H7.333a.917.917,0,1,1,0-1.833h2.75V7.333a.917.917,0,1,1,1.833,0v2.75h2.75A.917.917,0,0,1,15.583,11Z" transform="translate(136 922.304)" fill="#8591a5"/>
  </g>
</svg>
