<svg xmlns="http://www.w3.org/2000/svg" width="15.844" height="15.845" viewBox="0 0 15.844 15.845">
  <path id="Path_18745" data-name="Path 18745" d="M1.145-511.933A1.692,1.692,0,0,0,.05-510.8,14.25,14.25,0,0,0,0-508.588c0,1.953,0,2.049.059,2.135a.649.649,0,0,0,.145.145c.084.056.164.059,1.151.059H2.414v4.9c0,4.747,0,4.9.059,4.989a.43.43,0,0,0,.387.2,2.608,2.608,0,0,0,.706-.207l.551-.2.551.2a2.926,2.926,0,0,0,.687.207,2.926,2.926,0,0,0,.687-.207l.551-.2.551.2a2.926,2.926,0,0,0,.687.207,2.926,2.926,0,0,0,.687-.207l.551-.2.551.2a2.926,2.926,0,0,0,.687.207,2.926,2.926,0,0,0,.687-.207l.551-.2.551.2a2.608,2.608,0,0,0,.706.207.43.43,0,0,0,.387-.2c.056-.084.059-.164.059-1.219v-1.13l.272-.124a4.1,4.1,0,0,0,1.891-1.807,3.767,3.767,0,0,0,.436-1.838,3.723,3.723,0,0,0-.436-1.851A3.86,3.86,0,0,0,14.6-505.4a3.751,3.751,0,0,0-1.061-.727l-.294-.136v-2.185c0-2.4.006-2.321-.195-2.7a1.9,1.9,0,0,0-.662-.659c-.387-.207-.009-.2-5.8-.2l-5.245,0ZM11.837-511a.848.848,0,0,1,.4.393c.065.136.065.173.074,2.126l.009,1.99h-.446a3.9,3.9,0,0,0-2.3.684,5.288,5.288,0,0,0-1.046,1.04l-.124.195H6.483c-1.826,0-1.922,0-2.008.059a.435.435,0,0,0-.2.405.435.435,0,0,0,.2.405c.087.056.176.059,1.8.059,1.538,0,1.711.006,1.693.05a3.667,3.667,0,0,0-.13.665l-.022.213H6.192c-1.541,0-1.631,0-1.718.059a.435.435,0,0,0-.2.405.44.44,0,0,0,.189.4,7.262,7.262,0,0,0,1.742.068l1.668.016.071.282a4.377,4.377,0,0,0,.133.44,1.719,1.719,0,0,1,.065.176c0,.009-.8.015-1.786.015-1.7,0-1.792,0-1.878.059a.436.436,0,0,0-.2.4.432.432,0,0,0,.223.418,9.961,9.961,0,0,0,2.154.043l2.049-.009.319.313a3.89,3.89,0,0,0,1.844,1.052,3.085,3.085,0,0,0,.879.1l.579.016v1.164L12-497.432a1.646,1.646,0,0,0-.455-.121,2.973,2.973,0,0,0-.69.207l-.551.2-.551-.2a2.924,2.924,0,0,0-.687-.207,2.924,2.924,0,0,0-.687.207l-.551.2-.551-.2a2.924,2.924,0,0,0-.687-.207,2.924,2.924,0,0,0-.687.207l-.551.2-.551-.2a2.973,2.973,0,0,0-.69-.207,1.646,1.646,0,0,0-.455.121l-.316.121v-6.672l0-6.675-.071-.21-.071-.207,4.258.006A35.065,35.065,0,0,1,11.837-511Zm-9.872.019a.825.825,0,0,1,.378.39,7.522,7.522,0,0,1,.065,1.77l.009,1.649H.925l.009-1.649c.009-1.6.012-1.649.074-1.786a.909.909,0,0,1,.368-.381A.854.854,0,0,1,1.965-510.986Zm10.707,5.558a3.094,3.094,0,0,1,2.107,2.107,2.087,2.087,0,0,1,.087.832,2.087,2.087,0,0,1-.087.832,3.066,3.066,0,0,1-3.221,2.21,3.082,3.082,0,0,1-2.664-2.21,2.087,2.087,0,0,1-.087-.832,2.087,2.087,0,0,1,.087-.832,3.1,3.1,0,0,1,1.584-1.9A3.08,3.08,0,0,1,12.672-505.428Z" transform="translate(0 512.005)" fill="#616161"/>
</svg>
