<svg id="calendar_8_" data-name="calendar (8)" xmlns="http://www.w3.org/2000/svg" width="10.074" height="10.074" viewBox="0 0 10.074 10.074">
  <path id="Path_16597" data-name="Path 16597" d="M7.975.839h-.42V.42a.42.42,0,0,0-.839,0v.42H3.358V.42a.42.42,0,0,0-.839,0v.42H2.1A2.1,2.1,0,0,0,0,2.938V7.975a2.1,2.1,0,0,0,2.1,2.1H7.975a2.1,2.1,0,0,0,2.1-2.1V2.938A2.1,2.1,0,0,0,7.975.839ZM.839,2.938A1.259,1.259,0,0,1,2.1,1.679H7.975A1.259,1.259,0,0,1,9.234,2.938v.42H.839Zm7.136,6.3H2.1A1.259,1.259,0,0,1,.839,7.975V4.2H9.234V7.975A1.259,1.259,0,0,1,7.975,9.234Z" fill="#717070"/>
  <circle id="Ellipse_902" data-name="Ellipse 902" cx="0.63" cy="0.63" r="0.63" transform="translate(4.407 5.666)" fill="#717070"/>
  <circle id="Ellipse_903" data-name="Ellipse 903" cx="0.63" cy="0.63" r="0.63" transform="translate(2.309 5.666)" fill="#717070"/>
  <circle id="Ellipse_904" data-name="Ellipse 904" cx="0.63" cy="0.63" r="0.63" transform="translate(6.506 5.666)" fill="#717070"/>
</svg>
