<svg id="calendar_8_" data-name="calendar (8)" xmlns="http://www.w3.org/2000/svg" width="9.32" height="9.467" viewBox="0 0 9.32 9.467">
  <path id="Path_16597" data-name="Path 16597" d="M7.378.789H6.99V.394a.388.388,0,1,0-.777,0V.789H3.107V.394a.388.388,0,1,0-.777,0V.789H1.942A1.959,1.959,0,0,0,0,2.761V7.494A1.959,1.959,0,0,0,1.942,9.467H7.378A1.959,1.959,0,0,0,9.32,7.494V2.761A1.959,1.959,0,0,0,7.378.789ZM.777,2.761A1.174,1.174,0,0,1,1.942,1.578H7.378A1.174,1.174,0,0,1,8.543,2.761v.394H.777Zm6.6,5.917H1.942A1.174,1.174,0,0,1,.777,7.494V3.944H8.543v3.55A1.174,1.174,0,0,1,7.378,8.678Z" fill="#464646"/>
  <ellipse id="Ellipse_902" data-name="Ellipse 902" cx="0.582" cy="0.592" rx="0.582" ry="0.592" transform="translate(4.077 5.325)" fill="#464646"/>
  <ellipse id="Ellipse_903" data-name="Ellipse 903" cx="0.582" cy="0.592" rx="0.582" ry="0.592" transform="translate(2.136 5.325)" fill="#464646"/>
  <ellipse id="Ellipse_904" data-name="Ellipse 904" cx="0.582" cy="0.592" rx="0.582" ry="0.592" transform="translate(6.019 5.325)" fill="#464646"/>
</svg>
