<svg xmlns="http://www.w3.org/2000/svg" width="10.781" height="5.405" viewBox="0 0 10.781 5.405">
  <g id="Group_7935" data-name="Group 7935" transform="translate(-371.219 -691)">
    <g id="eye_3_1_" data-name="eye (3) (1)" transform="translate(350.276 1065.061)">
      <path id="Path_19145" data-name="Path 19145" d="M21.187-374.037a.353.353,0,0,0-.122.073.356.356,0,0,0-.048.489,7.7,7.7,0,0,0,.922.917l.28.229.055.046-.633.823c-.346.454-.647.856-.667.892a.414.414,0,0,0,.032.356.394.394,0,0,0,.493.1,9.812,9.812,0,0,0,.734-.9c.362-.473.667-.86.677-.86s.154.069.317.151a5.954,5.954,0,0,0,1.124.445c.165.046.314.092.335.1s.009.147-.177,1.048c-.117.567-.213,1.073-.216,1.126a.38.38,0,0,0,.167.294.424.424,0,0,0,.4,0c.135-.1.147-.142.374-1.255l.218-1.073.287.018c.158.009.427.018.6.018s.438-.009.6-.018l.287-.018.218,1.073c.227,1.112.239,1.154.374,1.255a.424.424,0,0,0,.4,0,.38.38,0,0,0,.167-.294c0-.053-.1-.56-.216-1.126-.186-.9-.209-1.034-.177-1.046s.154-.048.294-.087a6.833,6.833,0,0,0,1.6-.7l.209-.126.477.931c.261.511.493.95.514.975a.4.4,0,0,0,.461.069.339.339,0,0,0,.179-.28c.009-.112,0-.138-.489-1.1-.275-.539-.509-.993-.518-1.007s.073-.108.245-.264a6.048,6.048,0,0,0,.723-.766.4.4,0,0,0,.018-.317.386.386,0,0,0-.417-.209c-.083.014-.138.06-.5.42a5.9,5.9,0,0,1-1.06.895,5.889,5.889,0,0,1-2.83.991,8.738,8.738,0,0,1-1.452-.034,6.092,6.092,0,0,1-3.654-1.94C21.467-374.06,21.394-374.1,21.187-374.037Z" transform="translate(0 0)" fill="#707070"/>
    </g>
  </g>
</svg>
