<svg xmlns="http://www.w3.org/2000/svg" width="17.233" height="15.586" viewBox="0 0 17.233 15.586">
  <g id="Group_7903" data-name="Group 7903" transform="translate(-58.767 -417.063)">
    <g id="users-avatar" transform="translate(58.767 417.063)">
      <path id="Path_16656" data-name="Path 16656" d="M104.353-463.877a3.94,3.94,0,0,0-.952.315,3.451,3.451,0,0,0-1.811,2.272,4.4,4.4,0,0,0,.023,1.642,3.41,3.41,0,0,0,1.7,2.152,3.392,3.392,0,0,0,3.977-.555,3.246,3.246,0,0,0,1.038-2.467,3.392,3.392,0,0,0-2.7-3.329A5.774,5.774,0,0,0,104.353-463.877Zm1.323,1.338a2.216,2.216,0,0,1,1.353,1.507,2.522,2.522,0,0,1,0,1.046,2.244,2.244,0,0,1-1.687,1.612,1.843,1.843,0,0,1-.858,0,2.207,2.207,0,0,1-1.736-2.275,2.241,2.241,0,0,1,1.537-1.942A2.375,2.375,0,0,1,105.676-462.539Z" transform="translate(-98.698 463.899)" fill="#fbfcfe"/>
      <path id="Path_16657" data-name="Path 16657" d="M299.628-421.544c-.712.139-1.031.382-1.031.791a.594.594,0,0,0,.506.6.777.777,0,0,0,.435-.075,1.461,1.461,0,0,1,.93-.082,1.551,1.551,0,0,1,.795.461,1.524,1.524,0,0,1-.439,2.437,1.21,1.21,0,0,1-.589.154,1.579,1.579,0,0,1-1.185-.424.618.618,0,0,0-.922.21.747.747,0,0,0,0,.555,1.822,1.822,0,0,0,.622.54,2.886,2.886,0,0,0,2.485.15,2.793,2.793,0,0,0,1.6-1.837,3.341,3.341,0,0,0,.015-1.417,2.845,2.845,0,0,0-2-2.024A3.47,3.47,0,0,0,299.628-421.544Z" transform="translate(-287.882 423.168)" fill="#fbfcfe"/>
      <path id="Path_16658" data-name="Path 16658" d="M338.382-255.684a.718.718,0,0,0-.341.382.869.869,0,0,0,.083.551c.165.221.206.229,1.327.255,1.095.026,1.177.037,1.578.236a2.3,2.3,0,0,1,1.185,1.361,1.8,1.8,0,0,1,.1.8c0,.611-.06.832-.289,1.053s-.431.266-1.136.292c-.547.022-.611.03-.723.109a.617.617,0,0,0-.079.93c.184.191.307.214,1.05.195a2.152,2.152,0,0,0,1.458-.386,2.232,2.232,0,0,0,.922-1.353,6.034,6.034,0,0,0-.052-1.833,3.512,3.512,0,0,0-2.039-2.373,3.828,3.828,0,0,0-1.848-.255A4.819,4.819,0,0,0,338.382-255.684Z" transform="translate(-326.335 263.53)" fill="#fbfcfe"/>
      <path id="Path_16659" data-name="Path 16659" d="M29.975-250.592a4.188,4.188,0,0,0-3.771,3.846c-.24,1.837.382,3.13,1.717,3.554a3.78,3.78,0,0,0,.544.131c.165.026,1.567.038,4.075.03l3.824-.011.337-.1a2.4,2.4,0,0,0,1.541-1.233,4.836,4.836,0,0,0-.06-3.692,3.905,3.905,0,0,0-.978-1.417,4.105,4.105,0,0,0-2.058-1.042,13.261,13.261,0,0,0-2.643-.086C31.246-250.622,30.106-250.611,29.975-250.592Zm5.113,1.3a3.2,3.2,0,0,1,1.953,1.672,2.711,2.711,0,0,1,.3,1.275c.052,1.233-.247,1.781-1.1,2.032a26.358,26.358,0,0,1-3.531.079c-2.009.008-3.483,0-3.749-.026-.858-.071-1.275-.352-1.477-.993a2.573,2.573,0,0,1-.082-.9,2.587,2.587,0,0,1,.3-1.466,3.117,3.117,0,0,1,1.683-1.567c.51-.206.525-.206,3.078-.2l2.362.008Z" transform="translate(-26.153 258.614)" fill="#fbfcfe"/>
    </g>
  </g>
</svg>
