<svg xmlns="http://www.w3.org/2000/svg" width="9.744" height="9.744" viewBox="0 0 9.744 9.744">
  <g id="Group_7972" data-name="Group 7972" transform="translate(-434.6 -834)">
    <g id="Group_7970" data-name="Group 7970" transform="translate(112 13)">
      <g id="link_1_" data-name="link (1)" transform="translate(306.6 1317)">
        <path id="Path_16981" data-name="Path 16981" d="M210.42-495.959a.308.308,0,0,0-.146.284.308.308,0,0,0,.146.284c.065.039.106.041,1.183.041h1.116l-2.336,2.338c-1.287,1.287-2.349,2.361-2.361,2.385a.455.455,0,0,0-.022.152.3.3,0,0,0,.321.321.455.455,0,0,0,.152-.022c.024-.012,1.1-1.074,2.385-2.361l2.338-2.336v1.116c0,1.078,0,1.118.041,1.183a.308.308,0,0,0,.284.146.308.308,0,0,0,.284-.146,6.618,6.618,0,0,0,.041-1.64,6.618,6.618,0,0,0-.041-1.64.373.373,0,0,0-.106-.106,6.618,6.618,0,0,0-1.64-.041A6.618,6.618,0,0,0,210.42-495.959Z" transform="translate(-188.103)" fill="#00a276"/>
        <g id="Group_7969" data-name="Group 7969">
          <g id="Group_7968" data-name="Group 7968">
            <g id="Group_7967" data-name="Group 7967">
              <path id="Path_16982" data-name="Path 16982" d="M16.666-431.9a1,1,0,0,0-.633.65c-.028.1-.032.469-.032,3.536a32.3,32.3,0,0,0,.039,3.548.992.992,0,0,0,.65.639c.1.028.469.032,3.536.032a32.292,32.292,0,0,0,3.548-.039.992.992,0,0,0,.639-.65,19.235,19.235,0,0,0,.032-2.2,10.508,10.508,0,0,0-.041-2.16.347.347,0,0,0-.562-.01,12.41,12.41,0,0,0-.047,2.107,9.778,9.778,0,0,1-.053,2.121.353.353,0,0,1-.278.173c-.059.006-1.557.01-3.333.006a22.972,22.972,0,0,1-3.3-.047.333.333,0,0,1-.164-.225c-.024-.106-.024-6.488,0-6.593a.333.333,0,0,1,.164-.225,10.4,10.4,0,0,1,2.119-.051,12.405,12.405,0,0,0,2.107-.047.307.307,0,0,0,.136-.278.308.308,0,0,0-.146-.284,10.535,10.535,0,0,0-2.168-.039A15.057,15.057,0,0,0,16.666-431.9Z" transform="translate(0 -62.766)" fill="#00a276"/>
            </g>
          </g>
        </g>
      </g>
    </g>
  </g>
</svg>
