<svg xmlns="http://www.w3.org/2000/svg" width="13.204" height="11.016" viewBox="0 0 13.204 11.016">
  <path id="headphones" d="M11.574,7.742V6.957a4.957,4.957,0,0,0-9.915,0v.784a2.754,2.754,0,0,0,1.1,5.275,1.1,1.1,0,0,0,1.1-1.1V8.61a1.1,1.1,0,0,0-1.1-1.1V6.957a3.856,3.856,0,0,1,7.711,0v.551a1.1,1.1,0,0,0-1.1,1.1v3.3a1.1,1.1,0,0,0,1.1,1.1,2.754,2.754,0,0,0,1.1-5.275ZM2.761,11.915h0a1.652,1.652,0,1,1,0-3.3Zm7.711,0V8.61a1.652,1.652,0,1,1,0,3.3Z" transform="translate(-0.014 -2)" fill="#616161"/>
</svg>
