<svg xmlns="http://www.w3.org/2000/svg" width="21.453" height="21.445" viewBox="0 0 21.453 21.445">
  <g id="Group_7938" data-name="Group 7938" transform="translate(-203.989 -865)">
    <g id="home_6_" data-name="home (6)" transform="translate(203.164 1377)">
      <path id="Path_17183" data-name="Path 17183" d="M10.695-511.849c-.306.143-.428.26-4.86,4.688-2.5,2.5-4.608,4.637-4.688,4.755a2.134,2.134,0,0,0-.231,1.742A1.976,1.976,0,0,0,2.763-499.3l.332.029.013,3.425c.013,3.362.017,3.429.1,3.655a2.373,2.373,0,0,0,1.523,1.54c.273.092.315.092,2.312.1,1.96,0,2.04,0,2.174-.084a.772.772,0,0,0,.218-.218c.08-.134.084-.218.084-2.8,0-1.817.017-2.72.046-2.833a1.15,1.15,0,0,1,.491-.638l.2-.117h2.652l.206.126a1.221,1.221,0,0,1,.5.722c.013.088.025,1.335.025,2.774,0,2.833-.008,2.724.231,2.946l.113.1,2.019.013c1.351.008,2.094,0,2.241-.034a2.476,2.476,0,0,0,1.515-1.154c.294-.588.277-.348.294-4.117l.013-3.408.344-.029a1.954,1.954,0,0,0,1.733-1.133c.143-.285.143-.3.143-.86s0-.571-.151-.881-.256-.424-4.751-4.919-4.612-4.608-4.919-4.751-.315-.151-.881-.151S11.005-512,10.695-511.849Zm1.162,1.15c.151.059,9.015,8.914,9.1,9.09a.719.719,0,0,1-.243.89c-.164.109-.2.113-.869.134-.755.021-.844.046-.995.281-.071.1-.076.374-.1,3.895a24.944,24.944,0,0,1-.092,3.928,1.108,1.108,0,0,1-.512.533l-.214.113-1.5.013-1.5.017-.013-2.43c-.013-2.375-.017-2.43-.109-2.7a2.353,2.353,0,0,0-1.435-1.507c-.269-.1-.294-.1-1.687-.122a8,8,0,0,0-1.679.05,2.385,2.385,0,0,0-1.737,1.784,21.388,21.388,0,0,0-.059,2.6v2.325l-1.5-.017-1.5-.013-.231-.126a1.065,1.065,0,0,1-.541-.692c-.029-.147-.046-1.381-.046-3.853,0-3.534,0-3.643-.084-3.773-.155-.256-.239-.281-1.007-.306-.667-.021-.705-.025-.869-.134a.719.719,0,0,1-.243-.89c.08-.164,8.943-9.031,9.086-9.086A1.069,1.069,0,0,1,11.857-510.7Z" fill="#8591a5"/>
    </g>
  </g>
</svg>
