<svg xmlns="http://www.w3.org/2000/svg" width="35" height="35" viewBox="0 0 35 35">
  <g id="Group_7945" data-name="Group 7945" transform="translate(-292 -569)">
    <g id="Group_7941" data-name="Group 7941" transform="translate(98 59)">
      <rect id="Rectangle_5591" data-name="Rectangle 5591" width="35" height="35" rx="17.5" transform="translate(194 510)" fill="#ea4335"/>
    </g>
    <g id="Group_7943" data-name="Group 7943" transform="translate(98.041 59.041)">
      <g id="picture" transform="translate(204 520)">
        <path id="Path_16603" data-name="Path 16603" d="M6.928,12.2a1.865,1.865,0,0,0-2.638,0L.038,16.455a3.1,3.1,0,0,0,3.084,2.874h8.7a3.088,3.088,0,0,0,1.711-.517Z" transform="translate(-0.014 -4.411)" fill="#fff"/>
        <ellipse id="Ellipse_918" data-name="Ellipse 918" cx="1.131" cy="1.131" rx="1.131" ry="1.131" transform="translate(10.031 2.491)" fill="#fff"/>
        <path id="Path_16604" data-name="Path 16604" d="M11.81,0h-8.7A3.112,3.112,0,0,0,0,3.108v7.2l3.4-3.4a3.108,3.108,0,0,1,4.4,0L14.4,13.521a3.089,3.089,0,0,0,.518-1.711v-8.7A3.112,3.112,0,0,0,11.81,0Zm-.622,6.216a2.486,2.486,0,1,1,2.486-2.486A2.486,2.486,0,0,1,11.188,6.216Z" transform="translate(0)" fill="#fff"/>
      </g>
    </g>
  </g>
</svg>
