<svg xmlns="http://www.w3.org/2000/svg" width="13.259" height="13.26" viewBox="0 0 13.259 13.26">
  <g id="Group_7939" data-name="Group 7939" transform="translate(-5254.871 1623.26)">
    <g id="Group_7938" data-name="Group 7938" transform="translate(4868 -1723.13)">
      <g id="_01_align_center" data-name="01 align center" transform="translate(386.871 99.87)">
        <path id="Path_17184" data-name="Path 17184" d="M6.039,1.519a2.06,2.06,0,0,0-3.975,0H0v1.1H2.064a2.06,2.06,0,0,0,3.975,0h7.22v-1.1ZM4.051,3.038a.967.967,0,1,1,.967-.967.967.967,0,0,1-.967.967Z" transform="translate(0 0)" fill="#00008b"/>
        <path id="Path_17185" data-name="Path 17185" d="M9.208,8.25A2.069,2.069,0,0,0,7.221,9.769H0v1.1H7.221a2.059,2.059,0,0,0,3.974,0h2.064v-1.1H11.2A2.069,2.069,0,0,0,9.208,8.25Zm0,3.039a.967.967,0,1,1,.967-.967.967.967,0,0,1-.967.967Z" transform="translate(0 -3.692)" fill="#00008b"/>
        <path id="Path_17186" data-name="Path 17186" d="M4.051,16.5a2.069,2.069,0,0,0-1.989,1.519H0v1.1H2.064a2.06,2.06,0,0,0,3.975,0h7.22v-1.1H6.039A2.069,2.069,0,0,0,4.051,16.5Zm0,3.039a.967.967,0,1,1,.967-.967A.967.967,0,0,1,4.051,19.539Z" transform="translate(0 -7.384)" fill="#00008b"/>
      </g>
    </g>
  </g>
</svg>
