<svg xmlns="http://www.w3.org/2000/svg" width="15.346" height="15.345" viewBox="0 0 15.346 15.345">
  <g id="Group_7933" data-name="Group 7933" transform="translate(-30 -266)">
    <g id="user_12_1_" data-name="user (12) (1)" transform="translate(29.875 777.826)">
      <path id="Path_18741" data-name="Path 18741" d="M6.838-511.786a7.635,7.635,0,0,0-3.658,1.478,9.785,9.785,0,0,0-1.535,1.535,7.621,7.621,0,0,0-1.481,3.689,11.321,11.321,0,0,0,0,1.859,7.62,7.62,0,0,0,1.481,3.688A9.781,9.781,0,0,0,3.18-498a7.62,7.62,0,0,0,3.688,1.481,11.317,11.317,0,0,0,1.859,0A7.62,7.62,0,0,0,12.416-498a9.781,9.781,0,0,0,1.535-1.535,7.62,7.62,0,0,0,1.481-3.688,11.321,11.321,0,0,0,0-1.859,7.621,7.621,0,0,0-1.481-3.689,9.785,9.785,0,0,0-1.535-1.535,7.62,7.62,0,0,0-3.688-1.481A11.691,11.691,0,0,0,6.838-511.786Zm1.91.942a6.783,6.783,0,0,1,5.107,3.706,6.5,6.5,0,0,1,.69,2.984,6.527,6.527,0,0,1-1.1,3.688,4.428,4.428,0,0,1-.507.669,1.3,1.3,0,0,1-.123-.309,5.331,5.331,0,0,0-2.684-3.089c-.159-.078-.336-.156-.39-.177l-.1-.036.09-.063a4.717,4.717,0,0,0,.78-.834,3.2,3.2,0,0,0,.516-1.937A3.236,3.236,0,0,0,8.6-509.228a2.484,2.484,0,0,0-.8-.066,2.56,2.56,0,0,0-1.3.24,3.256,3.256,0,0,0-1.421,4.744,4.541,4.541,0,0,0,.768.825l.1.078-.165.066a5.318,5.318,0,0,0-3,3.2,1.835,1.835,0,0,1-.135.342,5.863,5.863,0,0,1-.816-1.173,6.835,6.835,0,0,1-.6-4.819,6.8,6.8,0,0,1,5.578-5.047A8.129,8.129,0,0,1,8.749-510.845Zm-.4,2.522a2.321,2.321,0,0,1,1.754,2.249,2.2,2.2,0,0,1-.675,1.607,2.259,2.259,0,0,1-3.269,0,2.2,2.2,0,0,1-.675-1.607,2.331,2.331,0,0,1,1.742-2.249A2.619,2.619,0,0,1,8.353-508.323Zm.24,5.59a4.4,4.4,0,0,1,3.326,2.9,4.114,4.114,0,0,1,.2.828,2.9,2.9,0,0,1-.735.57A6.541,6.541,0,0,1,7.8-497.407a6.633,6.633,0,0,1-4.072-1.361l-.246-.183.015-.15a4.306,4.306,0,0,1,.408-1.277,4.578,4.578,0,0,1,1.985-1.976,4.047,4.047,0,0,1,2-.435A5.808,5.808,0,0,1,8.593-502.733Z" transform="translate(0)" fill="#616161"/>
    </g>
  </g>
</svg>
