<svg xmlns="http://www.w3.org/2000/svg" width="11.141" height="11.184" viewBox="0 0 11.141 11.184">
  <g id="Group_7905" data-name="Group 7905" transform="translate(-382.859 -183.408)">
    <g id="Group_7904" data-name="Group 7904">
      <g id="refresh_1_" data-name="refresh (1)" transform="translate(382.813 183.408)">
        <path id="Path_19523" data-name="Path 19523" d="M5.616.932a4.675,4.675,0,0,1,3.319,1.4H7.48a.466.466,0,0,0-.466.466h0a.466.466,0,0,0,.466.466H9.411a.866.866,0,0,0,.865-.865V.466A.466.466,0,0,0,9.81,0h0a.466.466,0,0,0-.466.466v.968a5.583,5.583,0,0,0-9.3,3.645.469.469,0,0,0,.466.513h0a.458.458,0,0,0,.461-.409A4.666,4.666,0,0,1,5.616.932Z" transform="translate(0 0)" fill="#00008b"/>
        <path id="Path_19524" data-name="Path 19524" d="M11.763,12a.458.458,0,0,0-.461.409,4.653,4.653,0,0,1-7.961,2.853H4.8a.466.466,0,0,0,.466-.466h0A.466.466,0,0,0,4.8,14.33H2.865A.865.865,0,0,0,2,15.2v1.931a.466.466,0,0,0,.466.466h0a.466.466,0,0,0,.466-.466v-.968a5.583,5.583,0,0,0,9.3-3.645A.469.469,0,0,0,11.763,12Z" transform="translate(-1.044 -6.408)" fill="#00008b"/>
      </g>
    </g>
  </g>
</svg>
