<svg xmlns="http://www.w3.org/2000/svg" width="13.204" height="15.845" viewBox="0 0 13.204 15.845">
  <g id="_01_align_center" data-name="01 align center" transform="translate(-2 -0.009)">
    <path id="Path_18742" data-name="Path 18742" d="M8.568,15.854l-.234-.1C8.074,15.636,2,12.893,2,7.925V3.618a1.969,1.969,0,0,1,1.354-1.87L8.6.009l5.248,1.74A1.969,1.969,0,0,1,15.2,3.618V7.925c0,5.662-6.132,7.761-6.393,7.848ZM8.6,1.393,3.772,3a.655.655,0,0,0-.452.623V7.925c0,3.627,4.252,5.98,5.313,6.51,1.059-.426,5.25-2.375,5.25-6.51V3.618A.655.655,0,0,0,13.432,3Z" fill="#616161"/>
    <path id="Path_18743" data-name="Path 18743" d="M9.859,12.088H9.837a1.236,1.236,0,0,1-.888-.4L7.427,10.107l.951-.912L9.86,10.739l3.42-3.42.934.934L10.74,11.726A1.237,1.237,0,0,1,9.859,12.088Z" transform="translate(-1.844 -2.484)" fill="#616161"/>
  </g>
</svg>
