<svg xmlns="http://www.w3.org/2000/svg" width="17.372" height="17.371" viewBox="0 0 17.372 17.371">
  <g id="Group_7940" data-name="Group 7940" transform="translate(-374 -883)">
    <g id="Group_7938" data-name="Group 7938">
      <path id="paper-plane-top_2_" data-name="paper-plane-top (2)" d="M15.866,6.318,2.871.2A2,2,0,0,0,.125,2.685c.012.031,3.193,6.006,3.193,6.006S.2,14.664.185,14.694A1.992,1.992,0,0,0,2.93,17.172l12.938-6.108A2.439,2.439,0,0,0,17.375,8.69a2.438,2.438,0,0,0-1.509-2.371ZM1.472,2.149a.547.547,0,0,1,.768-.64L15.252,7.63a1.186,1.186,0,0,1,.428.334H4.572Zm13.779,7.6L2.3,15.867a.548.548,0,0,1-.768-.641L4.575,9.412H15.684a1.191,1.191,0,0,1-.432.341Z" transform="translate(373.997 882.997)" fill="#fff"/>
    </g>
  </g>
</svg>
