<svg id="teacher" xmlns="http://www.w3.org/2000/svg" width="17.536" height="15.713" viewBox="0 0 17.536 15.713">
  <path id="Path_17324" data-name="Path 17324" d="M81.969-430.889a.56.56,0,0,0-.342.356.848.848,0,0,0,.022.274c.059.22.256.328.612.328h.279v3.366l.117.139a.477.477,0,0,0,.733,0c.094-.1.094-.139.094-1.8v-1.7H96.354v9.179H92.025l-.13.13a.5.5,0,0,0-.022.666l.108.126,2.943.014c2.155.009,2.97,0,3.064-.04a.484.484,0,0,0,.189-.67c-.094-.185-.193-.225-.535-.225h-.3v-9.17l.319-.018c.3-.013.333-.027.454-.167a.339.339,0,0,0,.113-.351.426.426,0,0,0-.342-.418C97.731-430.92,82.194-430.934,81.969-430.889Z" transform="translate(-80.703 430.917)" fill="#fff"/>
  <path id="Path_17325" data-name="Path 17325" d="M225.216-369.024c-.162.086-.216.194-.216.423a.373.373,0,0,0,.13.32l.13.13h5.944l.117-.1a.5.5,0,0,0-.072-.774C231.061-369.128,225.4-369.123,225.216-369.024Z" transform="translate(-217.628 371.882)" fill="#fff"/>
  <path id="Path_17326" data-name="Path 17326" d="M184.2-327.989a.49.49,0,0,0-.1.751l.13.131h3.879c2.574,0,3.906-.014,3.964-.045a.578.578,0,0,0,.221-.427.482.482,0,0,0-.247-.418C191.864-328.079,184.345-328.07,184.2-327.989Z" transform="translate(-178.44 332.683)" fill="#fff"/>
  <path id="Path_17327" data-name="Path 17327" d="M82.1-307.5a2.4,2.4,0,0,0-1.93,1.84,2.181,2.181,0,0,0,.027,1.1,2.238,2.238,0,0,0,.63,1.107,2.385,2.385,0,0,0,3.352-.018,2.4,2.4,0,0,0,.441-2.767,2.577,2.577,0,0,0-1.44-1.2A2.917,2.917,0,0,0,82.1-307.5Zm.99,1.075a1.4,1.4,0,0,1,.454,2.2,1.4,1.4,0,0,1-2.322-.328,1.643,1.643,0,0,1-.063-1.053,1.593,1.593,0,0,1,.972-.913A1.817,1.817,0,0,1,83.089-306.424Z" transform="translate(-79.258 313.075)" fill="#fff"/>
  <path id="Path_17328" data-name="Path 17328" d="M73.338-286.735c-.063.049-1.386,1.611-2.938,3.465s-2.839,3.375-2.853,3.375a.828.828,0,0,1-.112-.261,3.5,3.5,0,0,0-1.3-1.579,3.368,3.368,0,0,0-2.551-.387,4.39,4.39,0,0,0-.67.261,3.5,3.5,0,0,0-1.359,1.314,3.129,3.129,0,0,0-.382,1.755,4.465,4.465,0,0,0,.027.931.473.473,0,0,0,.463.274.339.339,0,0,0,.315-.144c.121-.139.126-.153.126-.67a2.659,2.659,0,0,1,.675-2.146,2.241,2.241,0,0,1,3.249-.009,2.4,2.4,0,0,1,.616,1.174,6.839,6.839,0,0,1,.049.886c0,.58.009.63.1.738a.5.5,0,0,0,.747,0,.576.576,0,0,0,.095-.4v-.283l3.172-3.789c1.746-2.083,3.195-3.825,3.217-3.87a.732.732,0,0,0,0-.5A.509.509,0,0,0,73.338-286.735Z" transform="translate(-61.165 293.301)" fill="#fff"/>
</svg>
