<svg xmlns="http://www.w3.org/2000/svg" width="15.713" height="15.713" viewBox="0 0 15.713 15.713">
  <path id="usd-circle_1_" data-name="usd-circle (1)" d="M7.857,0a7.857,7.857,0,1,0,7.857,7.857A7.865,7.865,0,0,0,7.857,0Zm0,14.4A6.547,6.547,0,1,1,14.4,7.857,6.555,6.555,0,0,1,7.857,14.4Zm2.619-5.238A1.967,1.967,0,0,1,8.511,11.13v.655a.655.655,0,1,1-1.309,0V11.13H7.026a1.971,1.971,0,0,1-1.7-.981.654.654,0,0,1,1.133-.656.657.657,0,0,0,.568.328H8.511a.655.655,0,0,0,.655-.655.5.5,0,0,0-.422-.5L6.753,8.337A1.808,1.808,0,0,1,5.237,6.547,1.967,1.967,0,0,1,7.2,4.583V3.928a.655.655,0,1,1,1.309,0v.655h.175a1.972,1.972,0,0,1,1.7.982.654.654,0,1,1-1.133.655.658.658,0,0,0-.568-.327H7.2a.655.655,0,0,0-.655.655.5.5,0,0,0,.422.5l1.991.332a1.808,1.808,0,0,1,1.516,1.789Z" fill="#fff"/>
</svg>
