<svg xmlns="http://www.w3.org/2000/svg" width="19.137" height="22.914" viewBox="0 0 19.137 22.914">
  <g id="user_11_1_" data-name="user (11) (1)" transform="translate(-42 511.899)">
    <path id="Path_16927" data-name="Path 16927" d="M133.848-511.873a5.644,5.644,0,0,0-1.988.672,6.116,6.116,0,0,0-2.033,2.015,5.565,5.565,0,0,0-.6,1.513,7.391,7.391,0,0,0-.063,2.243,5.559,5.559,0,0,0,2.767,3.9,5.674,5.674,0,0,0,5.032.188,5.379,5.379,0,0,0,1.567-1.133,5.223,5.223,0,0,0,1.616-4.155,5.24,5.24,0,0,0-1.585-3.649,5.427,5.427,0,0,0-2.955-1.558A9.338,9.338,0,0,0,133.848-511.873Zm1.916,1.486a4.178,4.178,0,0,1,1.813,1.11,3.971,3.971,0,0,1,1.048,1.746,2.958,2.958,0,0,1,.121,1.155,3.159,3.159,0,0,1-.121,1.155,3.987,3.987,0,0,1-1.034,1.724,4.061,4.061,0,0,1-2.955,1.263,3.921,3.921,0,0,1-2.816-1.119,4.115,4.115,0,0,1-1.2-1.912,3.226,3.226,0,0,1-.1-1.133,2.993,2.993,0,0,1,.125-1.186,4.342,4.342,0,0,1,1.952-2.422,3.786,3.786,0,0,1,1.169-.443A6.01,6.01,0,0,1,135.764-510.386Z" transform="translate(-83.207)" fill="#8591a5"/>
    <path id="Path_16928" data-name="Path 16928" d="M46.432-264.9a4.1,4.1,0,0,0-2.476,1.213C42.7-262.4,42-260.113,42-257.314a4.235,4.235,0,0,0,.461,2.346,2.757,2.757,0,0,0,.591.766,3.324,3.324,0,0,0,1.352.882c.739.269.492.26,7.338.246l6.263-.013.381-.116a3.919,3.919,0,0,0,1.061-.47,3.628,3.628,0,0,0,1.536-2.077,6.9,6.9,0,0,0,.134-2.149c-.224-4.388-1.889-6.859-4.723-7.016-.609-.031-.618-.031-1.661.64a6.727,6.727,0,0,1-2.109.963,5.191,5.191,0,0,1-2.118,0,6.5,6.5,0,0,1-2.131-.976c-.3-.193-.658-.416-.815-.5a1,1,0,0,0-.649-.143C46.71-264.921,46.495-264.912,46.432-264.9Zm1.186,1.8a7.943,7.943,0,0,0,2.091,1.016,6.186,6.186,0,0,0,3.98-.09,7.708,7.708,0,0,0,1.845-.949l.663-.421.273.027c1.652.188,2.655,1.54,3.1,4.168a14.27,14.27,0,0,1,.157,2.758,2.306,2.306,0,0,1-1.871,2.086c-.322.076-.712.081-6.322.081-6.644,0-6.223.018-6.89-.3a2.524,2.524,0,0,1-1-.976,3.066,3.066,0,0,1-.26-1.594,8.168,8.168,0,0,1,1.531-5.368,2.635,2.635,0,0,1,1.446-.806C46.871-263.587,46.884-263.582,47.619-263.108Z" transform="translate(0 -235.916)" fill="#8591a5"/>
  </g>
</svg>
