<svg xmlns="http://www.w3.org/2000/svg" width="17.91" height="21.445" viewBox="0 0 17.91 21.445">
  <g id="user_11_1_" data-name="user (11) (1)" transform="translate(-42 511.899)">
    <path id="Path_16927" data-name="Path 16927" d="M133.544-511.874a5.282,5.282,0,0,0-1.86.629,5.724,5.724,0,0,0-1.9,1.885,5.208,5.208,0,0,0-.561,1.416,6.917,6.917,0,0,0-.059,2.1,5.2,5.2,0,0,0,2.589,3.65,5.31,5.31,0,0,0,4.71.176,5.034,5.034,0,0,0,1.467-1.06,4.888,4.888,0,0,0,1.513-3.888,4.9,4.9,0,0,0-1.483-3.415,5.079,5.079,0,0,0-2.765-1.458A8.741,8.741,0,0,0,133.544-511.874Z" transform="translate(-83.457 0)" fill="#080557"/>
    <path id="Path_16928" data-name="Path 16928" d="M46.148-264.9a3.838,3.838,0,0,0-2.317,1.135C42.658-262.562,42-260.421,42-257.8a3.963,3.963,0,0,0,.432,2.2,2.58,2.58,0,0,0,.553.716,3.111,3.111,0,0,0,1.265.825c.691.251.461.243,6.867.23l5.862-.013.356-.109a3.668,3.668,0,0,0,.993-.44,3.4,3.4,0,0,0,1.437-1.944,6.462,6.462,0,0,0,.126-2.011c-.21-4.106-1.768-6.419-4.42-6.566-.57-.029-.578-.029-1.555.6a6.3,6.3,0,0,1-1.973.9,4.858,4.858,0,0,1-1.982,0,6.084,6.084,0,0,1-1.994-.913c-.277-.18-.616-.39-.763-.465a.938.938,0,0,0-.608-.134C46.408-264.921,46.207-264.913,46.148-264.9Zm3.067,2.631C50.481-261.892,48.566-262.47,49.215-262.273Z" transform="translate(0 -236.625)" fill="#080557"/>
  </g>
</svg>
