<svg xmlns="http://www.w3.org/2000/svg" width="15.196" height="15.196" viewBox="0 0 15.196 15.196">
  <g id="_01_align_center" data-name="01 align center" transform="translate(0 0)">
    <path id="Path_17184" data-name="Path 17184" d="M6.921,1.741a2.36,2.36,0,0,0-4.556,0H0V3.007H2.365a2.36,2.36,0,0,0,4.556,0H15.2V1.741ZM4.643,3.482A1.108,1.108,0,1,1,5.751,2.374,1.108,1.108,0,0,1,4.643,3.482Z" transform="translate(0 0)" fill="#00008b"/>
    <path id="Path_17185" data-name="Path 17185" d="M10.553,8.25A2.371,2.371,0,0,0,8.275,9.991H0v1.266H8.275a2.36,2.36,0,0,0,4.555,0H15.2V9.991H12.83A2.371,2.371,0,0,0,10.553,8.25Zm0,3.482a1.108,1.108,0,1,1,1.108-1.108,1.108,1.108,0,0,1-1.108,1.108Z" transform="translate(0 -3.027)" fill="#00008b"/>
    <path id="Path_17186" data-name="Path 17186" d="M4.643,16.5a2.371,2.371,0,0,0-2.279,1.741H0v1.266H2.365a2.36,2.36,0,0,0,4.556,0H15.2V18.241H6.921A2.371,2.371,0,0,0,4.643,16.5Zm0,3.482a1.108,1.108,0,1,1,1.108-1.108,1.108,1.108,0,0,1-1.108,1.108Z" transform="translate(0 -6.053)" fill="#00008b"/>
  </g>
</svg>
