<svg xmlns="http://www.w3.org/2000/svg" width="372.234" height="193.335" viewBox="0 0 372.234 193.335">
  <g id="Group_7869" data-name="Group 7869" transform="translate(-32.7 -100)">
    <g id="Group_7868" data-name="Group 7868">
      <g id="Group_7867" data-name="Group 7867">
        <path id="Path_18760" data-name="Path 18760" d="M1027.86,214.06l21.885,38.674,21.885-38.674Z" transform="translate(-973.175 40.601)" fill="#010187" opacity="0.01"/>
        <path id="Path_18761" data-name="Path 18761" d="M1076.04,214.06l21.894,38.674,21.885-38.674Z" transform="translate(-977.584 40.601)" fill="#010187" opacity="0.01"/>
        <path id="Path_18762" data-name="Path 18762" d="M1124.23,214.06l21.885,38.674,21.895-38.674Z" transform="translate(-981.994 40.601)" fill="#010187" opacity="0.01"/>
        <path id="Path_18763" data-name="Path 18763" d="M1172.42,214.06l21.885,38.674L1216.2,214.06Z" transform="translate(-986.404 40.601)" fill="#010187" opacity="0.01"/>
        <path id="Path_18764" data-name="Path 18764" d="M1268.79,214.06l21.886,38.674,21.885-38.674Z" transform="translate(-995.224 40.601)" fill="#010187" opacity="0.01"/>
        <path id="Path_18769" data-name="Path 18769" d="M1384.85,252.734l-21.895-38.674-21.885,38.674Z" transform="translate(-1001.838 40.601)" fill="#010187" opacity="0.01"/>
        <path id="Path_18770" data-name="Path 18770" d="M1240.281,252.734,1218.4,214.06l-21.894,38.674Z" transform="translate(-988.609 40.601)" fill="#010187" opacity="0.01"/>
        <path id="Path_18771" data-name="Path 18771" d="M1143.911,252.734l-21.885-38.674-21.885,38.674Z" transform="translate(-979.79 40.601)" fill="#010187" opacity="0.01"/>
        <path id="Path_18774" data-name="Path 18774" d="M1003.73,171.5l21.885,38.665L1047.51,171.5Z" transform="translate(-970.967 44.496)" fill="#010187" opacity="0.01"/>
        <path id="Path_18775" data-name="Path 18775" d="M1051.92,171.5l21.895,38.665,21.876-38.665Z" transform="translate(-975.377 44.496)" fill="#010187" opacity="0.01"/>
        <path id="Path_18776" data-name="Path 18776" d="M1100.1,171.5l21.895,38.665L1143.88,171.5Z" transform="translate(-979.786 44.496)" fill="#010187" opacity="0.01"/>
        <path id="Path_18777" data-name="Path 18777" d="M1244.67,171.5l21.876,38.665,21.885-38.665Z" transform="translate(-993.016 44.496)" fill="#010187" opacity="0.01"/>
        <path id="Path_18778" data-name="Path 18778" d="M1341.03,171.5l21.894,38.665L1384.81,171.5Z" transform="translate(-1001.835 44.496)" fill="#010187" opacity="0.01"/>
        <path id="Path_18779" data-name="Path 18779" d="M1216.161,210.165,1194.275,171.5l-21.885,38.665Z" transform="translate(-986.402 44.496)" fill="#010187" opacity="0.01"/>
        <path id="Path_18780" data-name="Path 18780" d="M1167.98,210.165,1146.085,171.5,1124.2,210.165Z" transform="translate(-981.991 44.496)" fill="#010187" opacity="0.01"/>
        <path id="Path_18785" data-name="Path 18785" d="M1075.88,128.93l21.895,38.674,21.876-38.674Z" transform="translate(-977.57 48.391)" fill="#010187" opacity="0.01"/>
        <path id="Path_18787" data-name="Path 18787" d="M1220.44,128.93l21.885,38.674,21.894-38.674Z" transform="translate(-990.799 48.391)" fill="#010187" opacity="0.01"/>
        <path id="Path_18788" data-name="Path 18788" d="M1268.63,128.93l21.885,38.674L1312.4,128.93Z" transform="translate(-995.209 48.391)" fill="#010187" opacity="0.01"/>
        <path id="Path_18789" data-name="Path 18789" d="M1365.02,128.93,1386.9,167.6l21.895-38.674Z" transform="translate(-1004.03 48.391)" fill="#010187" opacity="0.01"/>
        <path id="Path_18793" data-name="Path 18793" d="M1336.518,128.93,1314.605,167.6,1292.72,128.93Z" transform="translate(-997.241 88.396)" fill="#010187" opacity="0.01"/>
        <path id="Path_18795" data-name="Path 18795" d="M1143.751,167.6l-21.894-38.674L1099.98,167.6Z" transform="translate(-979.775 48.391)" fill="#010187" opacity="0.01"/>
        <path id="Path_18796" data-name="Path 18796" d="M1095.569,167.6l-21.895-38.674L1051.78,167.6Z" transform="translate(-975.364 48.391)" fill="#010187" opacity="0.01"/>
        <path id="Path_18800" data-name="Path 18800" d="M1341.11,86.36,1363,125.034,1384.89,86.36Z" transform="translate(-1001.842 52.287)" fill="#010187" opacity="0.01"/>
        <path id="Path_18827" data-name="Path 18827" d="M1341.11,86.36,1363,125.034,1384.89,86.36Z" transform="translate(-1045.622 52.287)" fill="#010187" opacity="0.01"/>
        <path id="Path_18828" data-name="Path 18828" d="M1341.11,86.36,1363,125.034,1384.89,86.36Z" transform="translate(-1045.622 52.287)" fill="#010187" opacity="0.01"/>
        <path id="Path_18831" data-name="Path 18831" d="M1341.11,86.36,1363,125.034,1384.89,86.36Z" transform="translate(-1067.512 13.64)" fill="#010187" opacity="0.01"/>
        <path id="Path_18830" data-name="Path 18830" d="M1341.11,86.36,1363,125.034,1384.89,86.36Z" transform="translate(-1089.584 52.287)" fill="#010187" opacity="0.01"/>
        <g id="Group_7862" data-name="Group 7862">
          <path id="Path_18829" data-name="Path 18829" d="M1341.11,86.36,1363,125.034,1384.89,86.36Z" transform="translate(-1023.918 91.303)" fill="#010187" opacity="0.01"/>
        </g>
        <path id="Path_18805" data-name="Path 18805" d="M1408.98,125.034,1387.095,86.36,1365.2,125.034Z" transform="translate(-1004.047 52.287)" fill="#010187" opacity="0.01"/>
        <path id="Path_18806" data-name="Path 18806" d="M1168.04,125.034,1146.154,86.36l-21.894,38.674Z" transform="translate(-981.997 52.287)" fill="#010187" opacity="0.01"/>
        <path id="Path_18807" data-name="Path 18807" d="M1119.851,125.034,1097.965,86.36l-21.885,38.674Z" transform="translate(-977.588 52.287)" fill="#010187" opacity="0.01"/>
        <path id="Path_18808" data-name="Path 18808" d="M1071.671,125.034,1049.776,86.36,1027.9,125.034Z" transform="translate(-973.179 52.287)" fill="#010187" opacity="0.01"/>
        <path id="Path_18813" data-name="Path 18813" d="M1027.76,43.82l21.894,38.647,21.876-38.647Z" transform="translate(-973.166 56.18)" fill="#010187" opacity="0.01"/>
        <path id="Path_18814" data-name="Path 18814" d="M1075.94,43.82l21.895,38.647L1119.72,43.82Z" transform="translate(-977.575 56.18)" fill="#010187" opacity="0.01"/>
        <path id="Path_18815" data-name="Path 18815" d="M1220.51,43.82,1242.4,82.467l21.885-38.647Z" transform="translate(-990.805 56.18)" fill="#010187" opacity="0.01"/>
        <path id="Path_18816" data-name="Path 18816" d="M1365.08,43.82l21.885,38.647L1408.86,43.82Z" transform="translate(-1004.036 56.18)" fill="#010187" opacity="0.01"/>
        <path id="Path_18822" data-name="Path 18822" d="M1384.758,82.467,1362.873,43.82,1340.96,82.467Z" transform="translate(-1001.828 56.18)" fill="#010187" opacity="0.01"/>
        <path id="Path_18823" data-name="Path 18823" d="M1143.811,82.467,1121.926,43.82,1100.04,82.467Z" transform="translate(-979.781 56.18)" fill="#010187" opacity="0.01"/>
        <path id="Path_18824" data-name="Path 18824" d="M1047.449,82.467,1025.554,43.82,1003.66,82.467Z" transform="translate(-970.96 56.18)" fill="#010187" opacity="0.01"/>
      </g>
    </g>
  </g>
</svg>
