<svg xmlns="http://www.w3.org/2000/svg" width="11.387" height="10.438" viewBox="0 0 11.387 10.438">
  <path id="envelope_11_" data-name="envelope (11)" d="M9.015,1H2.372A2.375,2.375,0,0,0,0,3.372V9.066a2.375,2.375,0,0,0,2.372,2.372H9.015a2.375,2.375,0,0,0,2.372-2.372V3.372A2.375,2.375,0,0,0,9.015,1Zm-6.643.949H9.015a1.423,1.423,0,0,1,1.319.9L6.7,6.478a1.427,1.427,0,0,1-2.014,0L1.053,2.844a1.423,1.423,0,0,1,1.319-.9ZM9.015,10.49H2.372A1.423,1.423,0,0,1,.949,9.066V4.084L4.016,7.149a2.376,2.376,0,0,0,3.356,0l3.067-3.065V9.066A1.423,1.423,0,0,1,9.015,10.49Z" transform="translate(0 -1)" fill="#656e7c"/>
</svg>
