<svg xmlns="http://www.w3.org/2000/svg" width="10.134" height="12.062" viewBox="0 0 10.134 12.062">
  <path id="file-download_1_" data-name="file-download (1)" d="M8.7,7.776a.241.241,0,0,1,0,.341L7.49,9.355a.95.95,0,0,1-.664.279.987.987,0,0,1-.681-.277L4.932,8.117a.241.241,0,0,1,.344-.337L6.488,9.018a.463.463,0,0,0,.088.069V5.54a.241.241,0,0,1,.482,0V9.087a.475.475,0,0,0,.09-.07l1.21-1.236a.241.241,0,0,1,.341,0ZM11.634,4.81V9.394a2.17,2.17,0,0,1-2.168,2.168h-5.3A2.17,2.17,0,0,1,2,9.394V2.168A2.17,2.17,0,0,1,4.168,0H6.824A3.113,3.113,0,0,1,9.039.917L10.717,2.6a3.109,3.109,0,0,1,.917,2.214ZM7.781,3.132a.723.723,0,0,0,.723.723h2.472a2.645,2.645,0,0,0-.6-.917L8.7,1.258a2.652,2.652,0,0,0-.917-.6ZM11.152,4.81a2.674,2.674,0,0,0-.042-.474H8.5a1.206,1.206,0,0,1-1.2-1.2V.524A2.674,2.674,0,0,0,6.824.482H4.168A1.688,1.688,0,0,0,2.482,2.168V9.393a1.688,1.688,0,0,0,1.686,1.686h5.3a1.688,1.688,0,0,0,1.686-1.686V4.81ZM6.826,9.634Z" transform="translate(-1.75 0.25)" fill="#ea4335" stroke="#ea4335" stroke-width="0.5"/>
</svg>
