<svg xmlns="http://www.w3.org/2000/svg" width="21.442" height="21.445" viewBox="0 0 21.442 21.445">
  <path id="Path_16918" data-name="Path 16918" d="M9.994-511.7c-.52.172-.419.075-5.167,4.815-2.5,2.493-4.6,4.631-4.681,4.748a2.131,2.131,0,0,0-.23,1.739,1.973,1.973,0,0,0,1.844,1.362l.331.029L2.1-495.59c.013,3.352.017,3.424.1,3.65a2.381,2.381,0,0,0,1.6,1.567,11.876,11.876,0,0,0,2.242.067c1.936,0,2.02,0,2.154-.084a.771.771,0,0,0,.218-.218c.08-.134.084-.218.084-2.8,0-1.815.017-2.715.046-2.829a1.148,1.148,0,0,1,.49-.637l.2-.117h2.648l.205.126a1.219,1.219,0,0,1,.494.721c.013.088.025,1.333.025,2.77,0,2.829-.008,2.72.23,2.942l.113.1,2.016.013c1.349.008,2.091,0,2.238-.034a2.472,2.472,0,0,0,1.513-1.152c.293-.587.277-.348.293-4.111l.013-3.4.344-.029a1.953,1.953,0,0,0,1.743-1.152,1.341,1.341,0,0,0,.151-.838,1.346,1.346,0,0,0-.159-.859c-.159-.335-.163-.339-4.756-4.932s-4.6-4.6-4.932-4.756a1.372,1.372,0,0,0-.8-.168A2.12,2.12,0,0,0,9.994-511.7Z" transform="translate(0.175 511.75)" fill="#080557"/>
</svg>
