<svg xmlns="http://www.w3.org/2000/svg" width="11.649" height="17.224" viewBox="0 0 11.649 17.224">
  <path id="mobile-button_1_" data-name="mobile-button (1)" d="M11.665,16.724H7.484A3.488,3.488,0,0,1,4,13.24V3.484A3.488,3.488,0,0,1,7.484,0h4.181a3.488,3.488,0,0,1,3.484,3.484V13.24A3.488,3.488,0,0,1,11.665,16.724ZM7.484,1.394a2.093,2.093,0,0,0-2.09,2.09V13.24a2.093,2.093,0,0,0,2.09,2.09h4.181a2.093,2.093,0,0,0,2.09-2.09V3.484a2.093,2.093,0,0,0-2.09-2.09ZM10.968,13.24h0a.7.7,0,0,0-.7-.7H8.878a.7.7,0,0,0-.7.7h0a.7.7,0,0,0,.7.7h1.394A.7.7,0,0,0,10.968,13.24Z" transform="translate(-3.75 0.25)" stroke="#f5f5fa" stroke-width="0.5"/>
</svg>
