<svg xmlns="http://www.w3.org/2000/svg" width="22.174" height="22.174" viewBox="0 0 22.174 22.174">
  <path id="users_3_" data-name="users (3)" d="M6.929,12.011a4.158,4.158,0,1,1,4.158-4.158,4.158,4.158,0,0,1-4.158,4.158Zm0-6.468a2.31,2.31,0,1,0,2.31,2.31A2.31,2.31,0,0,0,6.929,5.544ZM13.859,21.25v-.462A6.929,6.929,0,0,0,0,20.788v.462a.924.924,0,0,0,1.848,0v-.462a5.082,5.082,0,0,1,10.163,0v.462a.924.924,0,0,0,1.848,0Zm8.315-4.62a6.468,6.468,0,0,0-10.779-4.82.924.924,0,1,0,1.233,1.377,4.62,4.62,0,0,1,7.7,3.443.924.924,0,1,0,1.848,0ZM16.169,8.315a4.158,4.158,0,1,1,4.158-4.158A4.158,4.158,0,0,1,16.169,8.315Zm0-6.468a2.31,2.31,0,1,0,2.31,2.31A2.31,2.31,0,0,0,16.169,1.848Z" fill="#8591a5"/>
</svg>
