<svg xmlns="http://www.w3.org/2000/svg" width="21.723" height="21.723" viewBox="0 0 21.723 21.723">
  <path id="users_4_" data-name="users (4)" d="M6.788,11.766a4.073,4.073,0,1,1,4.073-4.073,4.073,4.073,0,0,1-4.073,4.073Zm5.883,9.956H.905A.905.905,0,0,1,0,20.818v-.453a6.788,6.788,0,0,1,13.577,0v.453A.905.905,0,0,1,12.672,21.723ZM15.839,8.146a4.073,4.073,0,1,1,4.073-4.073,4.073,4.073,0,0,1-4.073,4.073ZM14.553,9.975a6.177,6.177,0,0,0-4.227,2.562,8.632,8.632,0,0,1,4.448,4.66h6.043a.905.905,0,0,0,.905-.905v-.034a6.343,6.343,0,0,0-7.169-6.282Z" fill="#080557"/>
</svg>
