<svg id="_01_align_center" data-name="01 align center" xmlns="http://www.w3.org/2000/svg" width="11.57" height="11.877" viewBox="0 0 11.57 11.877">
  <path id="Path_17184" data-name="Path 17184" d="M5.27,1.361a1.786,1.786,0,0,0-3.469,0H0v.99H1.8a1.786,1.786,0,0,0,3.469,0h6.3v-.99ZM3.535,2.722a.855.855,0,0,1-.844-.866.844.844,0,1,1,1.687,0,.857.857,0,0,1-.844.866Z" transform="translate(0 0)" fill="#707070"/>
  <path id="Path_17185" data-name="Path 17185" d="M8.035,8.25A1.814,1.814,0,0,0,6.3,9.611H0v.99H6.3a1.785,1.785,0,0,0,3.468,0h1.8v-.99h-1.8A1.814,1.814,0,0,0,8.035,8.25Zm0,2.722a.866.866,0,1,1,.844-.866.855.855,0,0,1-.844.866Z" transform="translate(0 -4.167)" fill="#707070"/>
  <path id="Path_17186" data-name="Path 17186" d="M3.535,16.5A1.814,1.814,0,0,0,1.8,17.861H0v.99H1.8a1.786,1.786,0,0,0,3.469,0h6.3v-.99H5.27A1.814,1.814,0,0,0,3.535,16.5Zm0,2.722a.866.866,0,1,1,.844-.866.855.855,0,0,1-.844.866Z" transform="translate(0 -8.335)" fill="#707070"/>
</svg>
