<svg xmlns="http://www.w3.org/2000/svg" width="13.275" height="13.255" viewBox="0 0 13.275 13.255">
  <g id="logout_2_" data-name="logout (2)" transform="translate(0.007 511.619)">
    <path id="Path_18739" data-name="Path 18739" d="M1.424-511.6a1.661,1.661,0,0,0-1.39,1.242c-.036.148-.041.8-.041,5.368,0,5.77-.013,5.35.176,5.731a1.765,1.765,0,0,0,.705.708c.4.2.215.187,3.19.187,2.085,0,2.679-.008,2.751-.034a.656.656,0,0,0,.3-.275.648.648,0,0,0,.044-.249.519.519,0,0,0-.267-.485l-.122-.073-2.645-.013A18.57,18.57,0,0,1,1.4-499.55a.624.624,0,0,1-.267-.324c-.039-.137-.039-10.1,0-10.233a.624.624,0,0,1,.267-.324,18.557,18.557,0,0,1,2.725-.057l2.645-.013.122-.073a.519.519,0,0,0,.267-.485.486.486,0,0,0-.161-.4c-.163-.169.005-.158-2.834-.161C2.75-511.621,1.513-511.613,1.424-511.6Z" transform="translate(0 0)" fill="#616161"/>
    <path id="Path_18740" data-name="Path 18740" d="M174.733-404.841a.762.762,0,0,0-.166.106.607.607,0,0,0-.109.635,15.532,15.532,0,0,0,1.258,1.3l1.211,1.2-3.262.005-3.262.008-.1.057a.528.528,0,0,0-.3.5.528.528,0,0,0,.3.5l.1.057,3.262.008,3.262.005-1.211,1.2a15.541,15.541,0,0,0-1.258,1.3.607.607,0,0,0,.109.635.607.607,0,0,0,.641.1c.161-.073,3.563-3.439,3.62-3.581a.7.7,0,0,0,0-.462c-.057-.143-3.459-3.509-3.62-3.581A.614.614,0,0,0,174.733-404.841Z" transform="translate(-165.599 -103.964)" fill="#616161"/>
  </g>
</svg>
