<svg xmlns="http://www.w3.org/2000/svg" width="11.387" height="11.389" viewBox="0 0 11.387 11.389">
  <path id="phone-flip_6_" data-name="phone-flip (6)" d="M.864.865l.5-.432a1.469,1.469,0,0,1,2.078,0c.014.014.892,1.158.892,1.158a1.473,1.473,0,0,1,0,2.03l-.55.693a6.07,6.07,0,0,0,3.288,3.3l.693-.555a1.464,1.464,0,0,1,2.03,0s1.143.878,1.158.892A1.462,1.462,0,0,1,10.974,10l-.474.546a2.907,2.907,0,0,1-2.078.844C4.8,11.392,0,6.586,0,2.966A2.915,2.915,0,0,1,.864.869Zm7.557,9.573A1.931,1.931,0,0,0,9.8,9.892l.474-.546a.522.522,0,0,0,.019-.716s-1.134-.873-1.148-.887a.536.536,0,0,0-.735,0c-.014.014-.968.778-.968.778a.471.471,0,0,1-.465.071A7.109,7.109,0,0,1,2.8,4.413a.479.479,0,0,1,.071-.474s.764-.958.773-.968a.518.518,0,0,0,0-.735c-.014-.014-.887-1.148-.887-1.148a.53.53,0,0,0-.74.038l-.5.432a1.968,1.968,0,0,0-.569,1.4c0,3.3,4.635,7.476,7.477,7.476Z" transform="translate(0.004 -0.003)" fill="#656e7c"/>
</svg>
