<svg xmlns="http://www.w3.org/2000/svg" width="20.909" height="22.175" viewBox="0 0 20.909 22.175">
  <g id="calendar_6_1_" data-name="calendar (6) (1)" transform="translate(-56.167 480.025)">
    <path id="Path_16919" data-name="Path 16919" d="M61.975-479.919c-.309.188-.377.371-.377,1v.565h-.821a7.35,7.35,0,0,0-1.172.073,4.28,4.28,0,0,0-2.176,1.25,4.142,4.142,0,0,0-1.109,2.652c-.126,1.575-.173,3.871-.146,7.078a37.761,37.761,0,0,0,.3,6.21,4.279,4.279,0,0,0,2.977,2.935,54.566,54.566,0,0,0,8.235.293,38.944,38.944,0,0,0,6.126-.293,4.3,4.3,0,0,0,2.966-2.982,38.758,38.758,0,0,0,.293-6.1c.026-3.212-.016-5.493-.146-7.115a4.15,4.15,0,0,0-1.109-2.679,4.28,4.28,0,0,0-2.176-1.25,7.322,7.322,0,0,0-1.167-.073h-.827v-.565c0-.633-.068-.816-.377-1a1.053,1.053,0,0,0-.921,0c-.309.188-.377.371-.377,1v.565h-6.7v-.565c0-.466-.016-.586-.1-.732a.793.793,0,0,0-.732-.377A.846.846,0,0,0,61.975-479.919Zm-.377,3.8c0,.638.068.821.377,1.01a1.053,1.053,0,0,0,.921,0c.309-.188.377-.371.377-1.01v-.56h6.7v.56c0,.471.016.591.1.738a.793.793,0,0,0,.732.377.793.793,0,0,0,.732-.377c.089-.146.1-.267.1-.743v-.57l.748.031a2.649,2.649,0,0,1,2.176.853,2.763,2.763,0,0,1,.659,1.889l.031.591H57.984l.031-.591a2.763,2.763,0,0,1,.659-1.889,2.858,2.858,0,0,1,.492-.424,3.091,3.091,0,0,1,1.9-.439l.534-.005Zm13.733,4.8c.058.5-.005,6.942-.073,8.187-.037.591-.1,1.24-.141,1.444a2.482,2.482,0,0,1-1.873,1.873,90.271,90.271,0,0,1-13.246,0,2.482,2.482,0,0,1-1.873-1.873c-.042-.2-.1-.842-.141-1.418-.068-1.214-.131-7.706-.073-8.214l.037-.34H75.3Z" transform="translate(0 0)" fill="#8591a5"/>
    <path id="Path_16920" data-name="Path 16920" d="M152.706-271.846A1.211,1.211,0,0,0,152-270.68a1.189,1.189,0,0,0,1.256,1.245,1.186,1.186,0,0,0,1.256-1.256,1.213,1.213,0,0,0-.743-1.172A1.641,1.641,0,0,0,152.706-271.846Z" transform="translate(-90.82 -197.196)" fill="#8591a5"/>
    <path id="Path_16921" data-name="Path 16921" d="M232.706-271.846A1.211,1.211,0,0,0,232-270.68a1.189,1.189,0,0,0,1.256,1.245,1.186,1.186,0,0,0,1.256-1.256,1.213,1.213,0,0,0-.743-1.172A1.641,1.641,0,0,0,232.706-271.846Z" transform="translate(-166.634 -197.196)" fill="#8591a5"/>
    <path id="Path_16922" data-name="Path 16922" d="M312.706-271.846A1.211,1.211,0,0,0,312-270.68a1.189,1.189,0,0,0,1.256,1.245,1.186,1.186,0,0,0,1.256-1.256,1.213,1.213,0,0,0-.743-1.172A1.641,1.641,0,0,0,312.706-271.846Z" transform="translate(-242.449 -197.196)" fill="#8591a5"/>
    <path id="Path_16923" data-name="Path 16923" d="M152.706-191.846A1.211,1.211,0,0,0,152-190.68a1.189,1.189,0,0,0,1.256,1.245,1.186,1.186,0,0,0,1.256-1.256,1.213,1.213,0,0,0-.743-1.172A1.641,1.641,0,0,0,152.706-191.846Z" transform="translate(-90.82 -273.011)" fill="#8591a5"/>
    <path id="Path_16924" data-name="Path 16924" d="M232.706-191.846A1.211,1.211,0,0,0,232-190.68a1.189,1.189,0,0,0,1.256,1.245,1.186,1.186,0,0,0,1.256-1.256,1.213,1.213,0,0,0-.743-1.172A1.641,1.641,0,0,0,232.706-191.846Z" transform="translate(-166.634 -273.011)" fill="#8591a5"/>
    <path id="Path_16925" data-name="Path 16925" d="M312.706-191.846A1.211,1.211,0,0,0,312-190.68a1.189,1.189,0,0,0,1.256,1.245,1.186,1.186,0,0,0,1.256-1.256,1.213,1.213,0,0,0-.743-1.172A1.641,1.641,0,0,0,312.706-191.846Z" transform="translate(-242.449 -273.011)" fill="#8591a5"/>
  </g>
</svg>
