<svg xmlns="http://www.w3.org/2000/svg" width="20.912" height="22.174" viewBox="0 0 20.912 22.174">
  <g id="calendar_7_1_" data-name="calendar (7) (1)" transform="translate(-56.134 480.025)">
    <path id="Path_17181" data-name="Path 17181" d="M64.852-479.919c-.309.188-.377.371-.377,1v.565h-.821a7.352,7.352,0,0,0-1.172.073,4.188,4.188,0,0,0-3.275,3.824c-.026.6.042.8.351,1l.173.12H79.255l.188-.126c.3-.209.382-.434.345-1.025a3.988,3.988,0,0,0-1.235-2.668,4.043,4.043,0,0,0-1.653-1.025,3.625,3.625,0,0,0-1.4-.167l-.984-.021v-.56c0-.628-.068-.811-.377-1a1.054,1.054,0,0,0-.921,0c-.309.188-.377.371-.377,1v.565h-6.7v-.565c0-.466-.016-.586-.1-.732a.793.793,0,0,0-.732-.377A.846.846,0,0,0,64.852-479.919Z" transform="translate(-2.907 0)" fill="#080557"/>
    <path id="Path_17182" data-name="Path 17182" d="M56.567-319.912a1.107,1.107,0,0,0-.288.277l-.126.173-.016,2.511a51.132,51.132,0,0,0,.3,7.471,4.251,4.251,0,0,0,2.982,2.972,53.617,53.617,0,0,0,8.182.293,43.968,43.968,0,0,0,6.095-.272,4.286,4.286,0,0,0,3.05-3,51.53,51.53,0,0,0,.3-7.5l-.016-2.49-.146-.188c-.288-.382.617-.35-10.3-.35C57-320.011,56.724-320.006,56.567-319.912Zm6.351,2.564a1.207,1.207,0,0,1,.691,1.1,1.189,1.189,0,0,1-1.214,1.2,1.216,1.216,0,0,1-.513-2.307A1.416,1.416,0,0,1,62.918-317.348Zm4.185,0a1.207,1.207,0,0,1,.691,1.1,1.189,1.189,0,0,1-1.214,1.2,1.216,1.216,0,0,1-.513-2.307A1.416,1.416,0,0,1,67.1-317.348Zm4.185,0a1.207,1.207,0,0,1,.691,1.1,1.189,1.189,0,0,1-1.214,1.2,1.216,1.216,0,0,1-.513-2.307A1.416,1.416,0,0,1,71.288-317.348Zm-8.371,4.185a1.207,1.207,0,0,1,.691,1.1,1.19,1.19,0,0,1-1.214,1.2,1.216,1.216,0,0,1-.513-2.307A1.417,1.417,0,0,1,62.918-313.163Zm4.185,0a1.207,1.207,0,0,1,.691,1.1,1.19,1.19,0,0,1-1.214,1.2,1.216,1.216,0,0,1-.513-2.307A1.417,1.417,0,0,1,67.1-313.163Zm4.185,0a1.207,1.207,0,0,1,.691,1.1,1.19,1.19,0,0,1-1.214,1.2,1.216,1.216,0,0,1-.513-2.307A1.416,1.416,0,0,1,71.288-313.163Z" transform="translate(0 -151.642)" fill="#080557"/>
  </g>
</svg>
