<svg xmlns="http://www.w3.org/2000/svg" xmlns:xlink="http://www.w3.org/1999/xlink" width="61" height="61" viewBox="0 0 61 61">
  <defs>
    <filter id="Ellipse_205" x="0" y="0" width="61" height="61" filterUnits="userSpaceOnUse">
      <feOffset dy="3" input="SourceAlpha"/>
      <feGaussianBlur stdDeviation="5" result="blur"/>
      <feFlood flood-color="#6466b7" flood-opacity="0.149"/>
      <feComposite operator="in" in2="blur"/>
      <feComposite in="SourceGraphic"/>
    </filter>
  </defs>
  <g id="Group_7937" data-name="Group 7937" transform="translate(2930 623)">
    <g id="Group_7936" data-name="Group 7936">
      <g id="Group_7935" data-name="Group 7935">
        <g id="Group_7934" data-name="Group 7934" transform="translate(-3294 -627)">
          <path id="Path_16638" data-name="Path 16638" d="M238.487-511.848a4.806,4.806,0,0,0-2.493,1.269,4.726,4.726,0,0,0-1.4,2.524,5.851,5.851,0,0,0-.017,1.805,4.837,4.837,0,0,0,3.8,3.863,5.734,5.734,0,0,0,1.788.014,4.861,4.861,0,0,0,3.164-2.089,4.6,4.6,0,0,0,.778-2.656,4.553,4.553,0,0,0-.526-2.2,4.846,4.846,0,0,0-3.448-2.528A6.578,6.578,0,0,0,238.487-511.848Z" transform="translate(158.749 534.793)" fill="#fff"/>
          <g transform="matrix(1, 0, 0, 1, 364, 4)" filter="url(#Ellipse_205)">
            <circle id="Ellipse_205-2" data-name="Ellipse 205" cx="15.5" cy="15.5" r="15.5" transform="translate(15 12)" fill="#fff"/>
          </g>
          <g id="bell" transform="translate(332.404 503.609)">
            <path id="Path_19146" data-name="Path 19146" d="M61.011-479.6a5.776,5.776,0,0,0-3.295,1.631,5.706,5.706,0,0,0-1.539,2.78l-.089.372-.025,2.536c-.021,2.507-.028,2.624-.145,2.841-.05.1-.869,1.28-1.064,1.539a1.092,1.092,0,0,0-.259.78.872.872,0,0,0,.1.489,1.15,1.15,0,0,0,.564.543l.181.085H58.93l.078.255a2.861,2.861,0,0,0,2.039,1.947,3.14,3.14,0,0,0,1.383,0,2.867,2.867,0,0,0,2.039-1.947l.078-.255h3.486l.181-.085a1.189,1.189,0,0,0,.571-.546.924.924,0,0,0,.1-.486,1.092,1.092,0,0,0-.259-.78c-.2-.259-1.014-1.44-1.064-1.539-.117-.216-.124-.333-.145-2.841l-.025-2.536-.089-.372a5.706,5.706,0,0,0-1.539-2.78,5.71,5.71,0,0,0-2.78-1.536,4.185,4.185,0,0,0-1.117-.1C61.455-479.612,61.072-479.609,61.011-479.6Zm1.507,1.209a5.335,5.335,0,0,1,1.22.39,4.623,4.623,0,0,1,2.305,2.7c.206.653.209.706.231,3.394a14.024,14.024,0,0,0,.089,2.66,6.035,6.035,0,0,0,.812,1.348l.521.745-2.979.011c-1.638,0-4.32,0-5.958,0l-2.979-.011.536-.763a5.865,5.865,0,0,0,.8-1.33,13.82,13.82,0,0,0,.089-2.66,22.324,22.324,0,0,1,.082-2.8,4.542,4.542,0,0,1,3.089-3.539A4.413,4.413,0,0,1,62.519-478.392Zm.762,12.466a1.811,1.811,0,0,1-.727.816,1.707,1.707,0,0,1-1.631,0,1.811,1.811,0,0,1-.727-.816L60.175-466H63.3Z" transform="translate(0 0)" fill="#575757"/>
          </g>
          <ellipse id="Ellipse_216" data-name="Ellipse 216" cx="3.918" cy="3.918" rx="3.918" ry="3.918" transform="translate(394.143 23.771)" fill="#5fc135"/>
        </g>
      </g>
    </g>
  </g>
</svg>
