<svg xmlns="http://www.w3.org/2000/svg" width="27.944" height="24.951" viewBox="0 0 27.944 24.951">
  <g id="Group_7941" data-name="Group 7941" transform="translate(-277.617 -565.524)">
    <g id="sent_2_" data-name="sent (2)" transform="translate(353.52 150.572) rotate(180)">
      <path id="Path_19137" data-name="Path 19137" d="M61.647-436.261C52.4-433.751,48.2-432.578,48.1-432.49a.662.662,0,0,0-.02.8c.061.061,2.082,1.011,4.49,2.123s4.381,2.021,4.395,2.035.142,1.858.292,4.11c.251,3.92.271,4.1.414,4.245a.5.5,0,0,0,.42.156c.264-.007.353-.075,1.709-1.275.787-.7,1.912-1.7,2.509-2.224l1.078-.956,3.154,2.224c2.882,2.035,3.181,2.224,3.432,2.231a.5.5,0,0,0,.4-.136c.142-.156,5.527-19.851,5.527-20.23,0-.353-.183-.522-.556-.515C75.184-439.9,69.026-438.261,61.647-436.261Zm10.085-1.485c-.068.061-13.611,8.783-14.039,9.034l-.2.122-3.642-1.682-3.642-1.682,10.763-2.916C73.441-438.255,71.806-437.821,71.732-437.746Zm2.414.631c-.068.237-1.105,4.049-2.313,8.477s-2.218,8.057-2.245,8.057-1.316-.888-2.855-1.98-3.3-2.3-3.9-2.692l-1.1-.726,6.253-5.778c3.438-3.174,6.26-5.778,6.266-5.778A3.554,3.554,0,0,1,74.146-437.115Zm-4.327,2.075c-.115.1-2.306,2.116-4.863,4.483l-4.646,4.3-.9,2.109c-.807,1.885-.9,2.075-.922,1.838-.217-2.97-.332-5.3-.264-5.337.047-.027,2.706-1.743,5.914-3.811s5.846-3.764,5.866-3.764S69.941-435.142,69.819-435.04Zm-8.077,10.465.61.414-.19.2c-.332.319-2.428,2.157-2.448,2.136s1.221-2.964,1.3-3.093C61.077-425.023,61.077-425.023,61.742-424.576Z" transform="translate(0 0)" fill="#e5d4de"/>
      <path id="Path_19138" data-name="Path 19138" d="M101.264-243.037a8.076,8.076,0,0,0-1,1.139.588.588,0,0,0,.665.719c.217-.041.563-.359,1.729-1.614.468-.5.529-.712.278-1.031-.108-.142-.2-.176-.427-.176C102.227-244,102.193-243.973,101.264-243.037Z" transform="translate(-48.739 -182.617)" fill="#e5d4de"/>
      <path id="Path_19139" data-name="Path 19139" d="M76.353-199.641c-.312.312-.353.393-.353.637a.425.425,0,0,0,.176.42c.3.237.529.19.943-.2s.5-.631.346-.929c-.115-.224-.231-.285-.543-.285C76.753-200,76.637-199.925,76.353-199.641Z" transform="translate(-26.14 -223.633)" fill="#e5d4de"/>
      <path id="Path_19140" data-name="Path 19140" d="M138.647-151.762a21.863,21.863,0,0,0-2.224,2.509.591.591,0,0,0,.78.726c.088-.034,1.7-1.824,2.062-2.292a.566.566,0,0,0-.129-.888A.539.539,0,0,0,138.647-151.762Z" transform="translate(-82.432 -268.568)" fill="#e5d4de"/>
      <path id="Path_19141" data-name="Path 19141" d="M263.985-151.632a1.635,1.635,0,0,0-.59.59.536.536,0,0,0,.522.787c.224,0,.319-.047.543-.271s.271-.319.271-.536a.723.723,0,0,0-.115-.407A.679.679,0,0,0,263.985-151.632Z" transform="translate(-200.765 -268.698)" fill="#e5d4de"/>
      <path id="Path_19142" data-name="Path 19142" d="M220.035-122.008a27.461,27.461,0,0,0-1.9,2.238.532.532,0,0,0,.088.665.6.6,0,0,0,.773.047,24.9,24.9,0,0,0,1.851-2.252A.581.581,0,0,0,220.035-122.008Z" transform="translate(-158.565 -296.288)" fill="#e5d4de"/>
      <path id="Path_19143" data-name="Path 19143" d="M110.18-103.946c-.041.027-.326.332-.624.678-.5.563-.556.658-.556.9a.481.481,0,0,0,.549.543c.305,0,.326-.02,1.092-.9.332-.387.393-.5.393-.719a.52.52,0,0,0-.549-.549A.739.739,0,0,0,110.18-103.946Z" transform="translate(-56.902 -313.122)" fill="#e5d4de"/>
    </g>
  </g>
</svg>
