<svg xmlns="http://www.w3.org/2000/svg" width="223.143" height="204.818" viewBox="0 0 223.143 204.818">
  <g id="Group_7973" data-name="Group 7973" transform="translate(-19.299 -642.437)">
    <g id="Group_7971" data-name="Group 7971" transform="translate(19.299 642.437)">
      <g id="video_3_" data-name="video (3)" transform="translate(0 0)">
        <path id="Path_16600" data-name="Path 16600" d="M32.256-495.058a22.636,22.636,0,0,0-15.311,14.127c-.884,2.732-.884,4.013-.791,61.038l.14,58.263,1.07,2.434a24.888,24.888,0,0,0,13.5,12.379l2.653.982H221.985l2.653-.982a24.888,24.888,0,0,0,13.5-12.379l1.07-2.434V-479.864l-1.07-2.433a24.877,24.877,0,0,0-13.5-12.378l-2.653-.984-93.539-.085C38.957-495.829,34.815-495.785,32.256-495.058Zm185.355,13.316a7.966,7.966,0,0,1,6.422,5.89c.745,3.117.745,107.094,0,110.21a7.957,7.957,0,0,1-6.422,5.889c-3.4.684-176.327.684-179.724,0a7.957,7.957,0,0,1-6.422-5.889c-.745-3.116-.745-107.093,0-110.21a8.147,8.147,0,0,1,6.1-5.847C40.539-482.339,214.493-482.339,217.611-481.743Z" transform="translate(-16.061 495.775)" fill="#00008b"/>
        <path id="Path_16601" data-name="Path 16601" d="M195.35-415.147a8.25,8.25,0,0,0-2.42,2.219c-.885,1.367-.931,2.22-.931,37.9s.046,36.538.931,37.9c1.4,2.092,3.491,3.074,6.561,3.074h2.653l31.04-17.842c17.125-9.775,31.5-18.312,31.971-18.909a6.954,6.954,0,0,0,0-8.452c-.466-.6-14.845-9.134-31.971-18.951L202.145-416h-2.653A8.272,8.272,0,0,0,195.35-415.147Zm30.528,29.452c10.005,5.762,18.243,10.542,18.243,10.67,0,.171-35.88,20.915-36.857,21.256-.186.086-.372-9.476-.372-21.256s.186-21.341.372-21.256C207.5-396.239,215.873-391.457,225.878-385.695Z" transform="translate(-110.096 450.051)" fill="#00008b"/>
        <path id="Path_16602" data-name="Path 16602" d="M163.335-127.46c-7.4,1.622-14.8,7.513-17.591,14.043l-1.07,2.561H82.78c-60.916,0-61.94,0-63.429.854A6.34,6.34,0,0,0,16-104.027a6.339,6.339,0,0,0,3.351,5.976c1.489.854,2.513.854,63.569.854,49.282,0,61.987.128,61.987.512,0,1.025,3.118,6.232,4.933,8.238,7.446,8.366,21.779,10.842,32.529,5.634a26.557,26.557,0,0,0,10.61-10.073A20.158,20.158,0,0,0,194.7-96.6c0-.512,2.7-.6,15.543-.6,15.311,0,15.5,0,17.032-.939,2.653-1.665,3.49-3.073,3.49-5.89s-.838-4.226-3.49-5.89c-1.536-.939-1.722-.939-16.939-.939h-15.4l-.791-2.049c-2.606-6.7-9.633-12.506-17.358-14.384A45.835,45.835,0,0,0,163.335-127.46ZM173.9-113.289a11.1,11.1,0,0,1,5.724,5.207,8.709,8.709,0,0,1-1.629,10.5,11.16,11.16,0,0,1-13.4,2.091c-5.771-3.031-7.26-9.561-3.351-14.512C163.847-113.289,169.8-114.826,173.9-113.289Z" transform="translate(-16 284.91)" fill="#00008b"/>
      </g>
    </g>
  </g>
</svg>
