<svg xmlns="http://www.w3.org/2000/svg" width="28.428" height="20.122" viewBox="0 0 28.428 20.122">
  <g id="Group_7938" data-name="Group 7938" transform="translate(-265.706 -800.939)">
    <g id="next" transform="translate(265.706 805.221)" opacity="0.1">
      <path id="Path_15335" data-name="Path 15335" d="M.362.362,0,.728,2.545,3.272,5.092,5.82,2.545,8.368,0,10.912l.365.365.362.362,2.91-2.91,2.91-2.91L3.637,2.91.727,0Z" transform="translate(0 0)" fill="#fff"/>
    </g>
    <g id="next-2" data-name="next" transform="translate(273.253 803.221)" opacity="0.15">
      <path id="Path_15335-2" data-name="Path 15335" d="M.476.476,0,.955,3.341,4.3,6.686,7.641,3.341,10.987,0,14.328l.48.48.476.476,3.821-3.821L8.6,7.641,4.776,3.821.955,0Z" transform="translate(0 0)" fill="#fff" stroke="#00008b" stroke-width="0.3"/>
    </g>
    <g id="next-3" data-name="next" transform="translate(282.85 801.221)" opacity="0.2">
      <path id="Path_15335-3" data-name="Path 15335" d="M.609.609,0,1.222,4.276,5.5,8.556,9.779,4.276,14.059,0,18.335l.614.614.609.609,4.889-4.889L11,9.779,6.112,4.889,1.222,0Z" transform="translate(0 0)" fill="#fff" stroke="#00008b" stroke-width="0.4"/>
    </g>
  </g>
</svg>
