<svg xmlns="http://www.w3.org/2000/svg" width="11.709" height="15.545" viewBox="0 0 11.709 15.545">
  <g id="Group_7934" data-name="Group 7934" transform="translate(-243.981 1780.272)">
    <path id="form" d="M7.476,6.394a1.918,1.918,0,0,0,0,3.836h2.557a1.918,1.918,0,0,0,0-3.836Zm3.2,1.918a.639.639,0,0,1-.639.639H7.476a.639.639,0,0,1,0-1.279h2.557A.639.639,0,0,1,10.672,8.312Zm1.279,3.836a.639.639,0,0,1-.639.639H6.2a.639.639,0,0,1,0-1.279h5.115A.639.639,0,0,1,11.951,12.148ZM13.573,2,12.512.937A3.176,3.176,0,0,0,10.252,0H6.2A3.2,3.2,0,0,0,3,3.2v8.951a3.2,3.2,0,0,0,3.2,3.2h5.115a3.2,3.2,0,0,0,3.2-3.2V4.256A3.176,3.176,0,0,0,13.573,2Zm-.9.9a1.982,1.982,0,0,1,.242.3h-1.6V1.6a1.875,1.875,0,0,1,.3.241Zm.561,9.248a1.918,1.918,0,0,1-1.918,1.918H6.2a1.918,1.918,0,0,1-1.918-1.918V3.2A1.918,1.918,0,0,1,6.2,1.279h3.836V3.2a1.279,1.279,0,0,0,1.279,1.279H13.23Z" transform="translate(241.081 -1780.172)" fill="#00008b" stroke="#eff1f6" stroke-width="0.2"/>
  </g>
</svg>
