<svg xmlns="http://www.w3.org/2000/svg" width="25.932" height="25.932" viewBox="0 0 25.932 25.932">
  <g id="Group_7935" data-name="Group 7935" transform="translate(-53.099 -207.444)">
    <g id="Group_7934" data-name="Group 7934" transform="translate(14 40)">
      <path id="paper-plane-top_3_" data-name="paper-plane-top (3)" d="M2.975.208A2.083,2.083,0,0,0,.658.553,1.977,1.977,0,0,0,.132,2.742l3.34,6.113L.194,14.964a1.979,1.979,0,0,0,.53,2.188,2.05,2.05,0,0,0,1.392.541,2.268,2.268,0,0,0,.982-.23L17.68,8.85ZM1.5,2.182a.519.519,0,0,1,.158-.543.6.6,0,0,1,.66-.11l11.2,6.585H4.748L1.5,2.182ZM2.4,16.162a.605.605,0,0,1-.684-.1.52.52,0,0,1-.158-.544L4.752,9.589h8.775L2.4,16.162Z" transform="translate(39.494 180.494) rotate(-45)" fill="#fff" stroke="#080557" stroke-width="0.5"/>
    </g>
  </g>
</svg>
