<svg xmlns="http://www.w3.org/2000/svg" width="22.061" height="22.041" viewBox="0 0 22.061 22.041">
  <g id="Group_7934" data-name="Group 7934" transform="translate(-136 -841.979)">
    <g id="send_3_" data-name="send (3)" transform="translate(135.957 1353.979)">
      <path id="Path_19525" data-name="Path 19525" d="M10.75-508.8c-5.287,1.762-9.713,3.258-9.838,3.322a1.7,1.7,0,0,0-.75.784,1.049,1.049,0,0,0-.112.681,1.252,1.252,0,0,0,.159.685c.28.552.147.47,4.167,2.542,2.017,1.034,3.68,1.883,3.706,1.883.047,0,13.074-13.018,13.074-13.07a1.326,1.326,0,0,0-.4-.03h-.4Z" transform="translate(0)" fill="#080557"/>
      <path id="Path_19526" data-name="Path 19526" d="M214.515-483.48c-3.581,3.581-6.515,6.533-6.515,6.554s.849,1.689,1.883,3.706c2.077,4.029,2,3.9,2.555,4.176a1.186,1.186,0,0,0,.733.138,1.128,1.128,0,0,0,.685-.121,1.829,1.829,0,0,0,.733-.758c.069-.134,1.56-4.555,3.318-9.829L221.1-489.2v-.4a1.115,1.115,0,0,0-.034-.4C221.048-490,218.1-487.065,214.515-483.48Z" transform="translate(-198.996 -21.052)" fill="#080557"/>
    </g>
  </g>
</svg>
