<svg xmlns="http://www.w3.org/2000/svg" width="22.061" height="22.055" viewBox="0 0 22.061 22.055">
  <g id="Group_7939" data-name="Group 7939" transform="translate(105 667)">
    <g id="Group_7845" data-name="Group 7845" transform="translate(-233 -1985)">
      <g id="send_2_" data-name="send (2)" transform="translate(128.1 1829.905)">
        <path id="Path_17180" data-name="Path 17180" d="M11.148-508.915c-5.463,1.641-10.02,3.024-10.132,3.076a2.508,2.508,0,0,0-.84.767,2.2,2.2,0,0,0,0,2.141,2.265,2.265,0,0,0,.788.737c.138.073,2.012.629,4.485,1.335L9.7-499.645l1.215,4.243c.719,2.512,1.262,4.347,1.335,4.489a2.532,2.532,0,0,0,.819.836,2.254,2.254,0,0,0,2.059-.047,2.469,2.469,0,0,0,.767-.849c.065-.129,1.452-4.709,3.093-10.171,2.2-7.332,2.977-9.99,2.977-10.145a.579.579,0,0,0-.646-.616C21.134-511.9,18.756-511.2,11.148-508.915Zm3.33,3.52-4.446,4.446-4.209-1.2C1.4-503.414,1.451-503.4,1.3-503.685a.87.87,0,0,1,0-.642.832.832,0,0,1,.2-.228c.1-.078,2.451-.8,8.758-2.692,4.739-1.426,8.625-2.589,8.637-2.589S16.925-507.843,14.478-505.4Zm5.394-3.4c-.009.03-1.176,3.912-2.589,8.629-1.883,6.281-2.6,8.612-2.675,8.715a.83.83,0,0,1-.228.2.869.869,0,0,1-.642,0c-.289-.146-.271-.095-1.534-4.519L11-499.981l4.433-4.433c2.443-2.443,4.442-4.437,4.446-4.437S19.88-508.825,19.872-508.8Z" transform="translate(0 0)" fill="#8591a5"/>
      </g>
    </g>
  </g>
</svg>
